<svg width="100" height="100" xmlns="http://www.w3.org/2000/svg">
  <defs>
    <pattern id="hearts" x="0" y="0" width="100" height="100" patternUnits="userSpaceOnUse">
      <path d="M50,30 C50,20 40,15 30,20 C25,22 23,27 23,32 C23,40 30,47 50,60 C70,47 77,40 77,32 C77,27 75,22 70,20 C60,15 50,20 50,30 Z" 
            fill="#c026d3" opacity="0.2" transform="scale(0.3) translate(50, 50)"/>
      <path d="M50,30 C50,20 40,15 30,20 C25,22 23,27 23,32 C23,40 30,47 50,60 C70,47 77,40 77,32 C77,27 75,22 70,20 C60,15 50,20 50,30 Z" 
            fill="#9333ea" opacity="0.2" transform="scale(0.25) translate(200, 50)"/>
      <path d="M50,30 C50,20 40,15 30,20 C25,22 23,27 23,32 C23,40 30,47 50,60 C70,47 77,40 77,32 C77,27 75,22 70,20 C60,15 50,20 50,30 Z" 
            fill="#c026d3" opacity="0.2" transform="scale(0.3) translate(50, 200)"/>
    </pattern>
  </defs>
  <rect width="100" height="100" fill="url(#hearts)"/>
</svg>
